<?xml version="1.0" encoding="UTF-8"?>
<svg version="1.1" xmlns="http://www.w3.org/2000/svg" width="516" height="426">
<path d="M0 0 C170.28 0 340.56 0 516 0 C516 140.58 516 281.16 516 426 C345.72 426 175.44 426 0 426 C0 285.42 0 144.84 0 0 Z " fill="#0F0F21" transform="translate(0,0)"/>
<path d="M0 0 C5.28671997 3.05672492 9.1153266 7.7281625 12.1875 12.9375 C13.8563127 20.53986898 12.8435472 26.83820822 8.75 33.5 C7.821875 34.386875 6.89375 35.27375 5.9375 36.1875 C5.215625 36.950625 4.49375 37.71375 3.75 38.5 C4.0690369 42.73456495 5.26981633 46.03171625 7.17089844 49.79589844 C7.92738678 51.30842194 7.92738678 51.30842194 8.69915771 52.85150146 C9.52096527 54.46414886 9.52096527 54.46414886 10.359375 56.109375 C11.20511078 57.79235687 11.20511078 57.79235687 12.06793213 59.50933838 C13.56619364 62.48729282 15.07126549 65.46159415 16.57983398 68.43432617 C18.09797245 71.4299207 19.60710297 74.43002475 21.1171875 77.4296875 C23.84142796 82.83828958 26.56964514 88.24481144 29.31506348 93.6427002 C30.2662935 95.53682536 31.19945138 97.44014237 32.11364746 99.35241699 C32.5392395 100.23804321 32.96483154 101.12366943 33.40332031 102.03613281 C33.7691925 102.81337708 34.1350647 103.59062134 34.51202393 104.39141846 C36.89548905 108.45105311 40.56625072 111.40812536 44.75 113.5 C46.8820521 113.81393261 46.8820521 113.81393261 49.3125 113.875 C50.52099609 113.94847656 50.52099609 113.94847656 51.75390625 114.0234375 C59.69778713 112.63558869 66.04285005 106.91752734 72 101.8125 C73.48951288 100.56086479 74.98041041 99.31087561 76.47265625 98.0625 C77.19855957 97.4540625 77.92446289 96.845625 78.67236328 96.21875 C81.54114701 93.84551411 84.47380122 91.5654454 87.4375 89.3125 C92.7273378 85.29008866 97.96177611 81.20412721 103.1706543 77.07739258 C105.64948799 75.11988803 108.12003938 73.25330708 110.75 71.5 C110.26886708 68.77358012 109.68805874 66.33968144 108.6875 63.75 C107.05338513 58.08506844 106.85191043 52.85028414 109.25 47.375 C112.67176908 41.28644292 118.1016591 36.63552768 124.75 34.5 C131.8047036 33.59311733 137.9873126 34.13543296 143.75 38.5 C148.53290146 43.02768735 152.2231623 47.40169281 153.0859375 54.11328125 C153.1954377 61.6797451 152.16553707 66.89193787 146.87890625 72.4765625 C141.41281263 77.49834227 137.03925066 79.32173757 129.75 80.5 C129.5887262 81.42792107 129.5887262 81.42792107 129.42419434 82.37458801 C124.56672806 110.31027679 119.67866023 138.23596691 114.44384766 166.10375977 C114.12529576 167.79963634 113.80677292 169.49551837 113.48828125 171.19140625 C113.26084229 172.40202477 113.26084229 172.40202477 113.02880859 173.63710022 C111.68033175 180.83325247 110.39729529 188.03998216 109.125 195.25 C108.54117385 198.50267614 107.95542661 201.75500265 107.36962891 205.00732422 C106.92279921 207.52597891 106.48470864 210.04514483 106.05615234 212.56689453 C105.4508926 216.12651013 104.82271894 219.68148756 104.18121338 223.23474121 C103.93921191 224.59845815 103.70517533 225.96361745 103.47991943 227.3302002 C101.38653263 239.9866962 101.38653263 239.9866962 96.73608398 245.17456055 C90.97931453 249.01641689 85.20756534 249.94339282 78.47680664 249.88768005 C77.68340661 249.89306559 76.89000658 249.89845113 76.07256413 249.90399987 C73.4349334 249.91821738 70.79780896 249.91119129 68.16015625 249.90405273 C66.26064656 249.9097595 64.36114029 249.91672494 62.4616394 249.92485046 C57.31706231 249.94276156 52.17265598 249.94161751 47.0280571 249.93590808 C42.72877943 249.93281377 38.42953444 249.93891128 34.13026142 249.94494683 C23.98687829 249.95898325 13.84357941 249.95743763 3.70019531 249.94604492 C-6.75633851 249.93455987 -17.21261597 249.94864796 -27.66911602 249.9754414 C-36.65618284 249.99760545 -45.64316922 250.00423431 -54.63026142 249.99836498 C-59.9937943 249.99499648 -65.35716278 249.99740374 -70.72067261 250.01461601 C-75.76378181 250.03009461 -80.80651131 250.02611931 -85.84960556 250.00731087 C-87.69746707 250.00362778 -89.54535678 250.00672527 -91.39319229 250.01719666 C-93.92149921 250.03042753 -96.44855286 250.01884139 -98.97680664 250.00120544 C-99.70289092 250.01081045 -100.4289752 250.02041546 -101.17706203 250.03031152 C-106.54266713 249.95363471 -110.78113833 248.5076627 -115.25 245.5 C-121.37579205 238.08456752 -121.91161625 229.44580345 -123.01757812 220.2578125 C-123.82923428 213.85424903 -125.04324587 207.62324824 -126.43579102 201.32177734 C-127.97365158 194.10328579 -129.21441392 186.82936053 -130.5 179.5625 C-130.8050805 177.84891237 -131.11042488 176.13537171 -131.41601562 174.421875 C-132.04853994 170.87404021 -132.67994693 167.32600934 -133.31054688 163.77783203 C-134.63733965 156.31744525 -135.97804915 148.8595626 -137.31845093 141.40161133 C-138.03715252 137.40196911 -138.75485373 133.4021474 -139.47265625 129.40234375 C-139.76317876 127.78369054 -140.05370616 126.16503821 -140.34423828 124.54638672 C-142.97949219 109.86425781 -145.61474609 95.18212891 -148.25 80.5 C-149.26646606 80.32041748 -149.26646606 80.32041748 -150.3034668 80.13720703 C-151.19718994 79.97075684 -152.09091309 79.80430664 -153.01171875 79.6328125 C-153.89561279 79.47184082 -154.77950684 79.31086914 -155.69018555 79.14501953 C-161.50090836 77.68083931 -164.93932697 74.31233939 -168.125 69.375 C-171.72380002 63.24989003 -171.8766747 57.48424413 -171.25 50.5 C-169.23441048 43.60591355 -162.80118422 38.64940098 -156.875 35.0625 C-150.31709184 33.65723396 -144.13881747 33.66491088 -138.20703125 37.0234375 C-133.5930234 40.50466498 -129.09431041 44.96706878 -127.25 50.5 C-126.68177186 57.87603834 -127.14449953 63.77141564 -130.25 70.5 C-123.18650154 76.56616064 -116.05496016 82.50806146 -108.70361328 88.22290039 C-104.7822481 91.27723821 -100.9182002 94.39317588 -97.07592773 97.54638672 C-84.0241399 109.37162199 -84.0241399 109.37162199 -67.85546875 113.78125 C-62.97472986 113.25439363 -59.7533941 111.11065241 -56.3918457 107.50927734 C-53.36886078 103.26200592 -51.15970976 98.70652462 -48.85546875 94.0390625 C-48.34502518 93.01630219 -47.8345816 91.99354187 -47.30867004 90.93978882 C-46.22925525 88.77424616 -45.15271598 86.60726813 -44.07885742 84.43896484 C-42.45903871 81.16848749 -40.83096604 77.9022345 -39.20117188 74.63671875 C-34.73455635 65.67163651 -30.28369123 56.69709894 -25.98828125 47.6484375 C-25.44856689 46.51325684 -24.90885254 45.37807617 -24.3527832 44.20849609 C-23.06145101 41.52431236 -23.06145101 41.52431236 -23.25 38.5 C-23.9925 37.7575 -24.735 37.015 -25.5 36.25 C-30.25125345 31.49874655 -32.47665459 27.80459209 -32.8125 21.125 C-32.5524849 14.59772438 -30.23175435 9.6975918 -25.79296875 4.9375 C-18.39469922 -1.62138803 -9.32846272 -4.08347103 0 0 Z " fill="#5ECEF9" transform="translate(267.25,68.5)"/>
</svg>
